# xmcd
#
# Track frame offsets:
#	150
#	28572
#	68060
#	83354
#	112709
#	139210
#	176012
#	201913
#
# Disc length: 2754 seconds
#
# Revision: 2
# Processed by: cddbd v1.5PL3 Copyright (c) Steve Scherf et al.
# Submitted via: dBpowerAMP V4.0
#
DISCID=5f0ac008
DTITLE=Eric Clapton - Live in Hyde Park
DYEAR=1900
DGENRE=Blues
TTITLE0=Titel 1
TTITLE1=Titel 2
TTITLE2=Titel 3
TTITLE3=Titel 4
TTITLE4=Titel 5
TTITLE5=Titel 6
TTITLE6=Titel 7
TTITLE7=Titel 8
EXTD=Eric Clapton\nLive in Hyde Park\nCD 2/2
EXTT0=
EXTT1=
EXTT2=
EXTT3=
EXTT4=
EXTT5=
EXTT6=
EXTT7=
PLAYORDER=
